<?xml version="1.0" encoding="UTF-8" standalone="no"?>
<!-- Created with Inkscape (http://www.inkscape.org/) -->

<svg
   width="120"
   height="120"
   viewBox="0 0 120 120"
   version="1.1"
   id="svg1"
   inkscape:version="1.3.2 (091e20e, 2023-11-25, custom)"
   sodipodi:docname="marvin.svg"
   xmlns:inkscape="http://www.inkscape.org/namespaces/inkscape"
   xmlns:sodipodi="http://sodipodi.sourceforge.net/DTD/sodipodi-0.dtd"
   xmlns:xlink="http://www.w3.org/1999/xlink"
   xmlns="http://www.w3.org/2000/svg"
   xmlns:svg="http://www.w3.org/2000/svg">
  <sodipodi:namedview
     id="namedview1"
     pagecolor="#ffffff"
     bordercolor="#000000"
     borderopacity="0.25"
     inkscape:showpageshadow="2"
     inkscape:pageopacity="0.0"
     inkscape:pagecheckerboard="0"
     inkscape:deskcolor="#d1d1d1"
     inkscape:document-units="px"
     inkscape:zoom="7.5791667"
     inkscape:cx="81.671248"
     inkscape:cy="85.695437"
     inkscape:window-width="3840"
     inkscape:window-height="2054"
     inkscape:window-x="2869"
     inkscape:window-y="-11"
     inkscape:window-maximized="1"
     inkscape:current-layer="layer3"
     showguides="true" />
  <defs
     id="defs1">
    <linearGradient
       id="linearGradient16"
       inkscape:collect="always">
      <stop
         style="stop-color:#6dff12;stop-opacity:1;"
         offset="0"
         id="stop16" />
      <stop
         style="stop-color:#99ff55;stop-opacity:0;"
         offset="0.81930691"
         id="stop17" />
    </linearGradient>
    <radialGradient
       inkscape:collect="always"
       xlink:href="#linearGradient16"
       id="radialGradient17"
       cx="60.659702"
       cy="68.93898"
       fx="60.659702"
       fy="68.93898"
       r="60.263882"
       gradientTransform="matrix(0.99343186,0,0,0.99945264,0.00259982,-8.472437)"
       gradientUnits="userSpaceOnUse" />
  </defs>
  <g
     inkscape:groupmode="layer"
     id="layer3"
     inkscape:label="background">
    <rect
       style="fill:url(#radialGradient17);stroke:#000000;stroke-width:0;stroke-linecap:round;stroke-linejoin:round;stroke-dasharray:none"
       id="rect16"
       width="119.73612"
       height="120.46179"
       x="0.39582187"
       y="0.19791134" />
  </g>
  <g
     inkscape:label="Layer 1"
     inkscape:groupmode="layer"
     id="layer1"
     style="display:inline">
    <path
       style="fill:#000000;fill-opacity:1;stroke-width:0.222985"
       d="m 44.343886,105.76969 c -0.11199,-0.29455 -0.147235,-1.08184 -0.07832,-1.74953 0.09702,-0.94 0.03621,-1.34993 -0.269447,-1.81642 -0.569533,-0.86922 -0.358386,-5.067715 0.343224,-6.824775 0.599335,-1.500927 0.810322,-4.282507 0.465125,-6.132087 -0.288313,-1.5448 -2.025837,-6.16087 -2.263669,-6.01389 -0.08799,0.0544 -0.230487,0.66315 -0.316655,1.35281 -0.169464,1.35636 -0.907791,3.96308 -1.650305,5.82655 l -0.464392,1.16547 1.072992,1.28933 c 1.368218,1.64408 1.592223,2.075887 1.592223,3.069287 0,1.9421 -1.058646,2.20901 -2.934532,0.73986 -0.654883,-0.51289 -1.241163,-1.0055 -1.302845,-1.0947 -0.130879,-0.18925 -1.119248,0.55977 -1.103865,0.83655 0.0057,0.10298 0.432184,0.39606 0.947688,0.65127 0.875151,0.43328 0.937281,0.52516 0.937281,1.38619 0,0.75554 0.130935,1.04209 0.724702,1.586005 0.398587,0.36512 0.724703,0.76426 0.724703,0.88698 0,0.4541 -1.078828,1.4581 -1.590851,1.48052 -0.291065,0.0127 -0.79986,0.2005 -1.130652,0.41724 -0.819935,0.53724 -1.250243,0.32913 -2.295667,-1.11029 -0.490568,-0.67546 -1.243144,-1.70031 -1.67239,-2.277445 -0.762055,-1.02461 -0.783852,-1.11241 -0.924839,-3.72517 -0.07941,-1.471697 -0.312643,-3.227707 -0.518284,-3.902237 -0.504995,-1.65645 -0.695142,-6.46629 -0.357016,-9.03091 0.439556,-3.33393 2.022228,-8.84174 3.203749,-11.14927 0.310077,-0.60558 0.472702,-1.39849 0.506544,-2.46975 0.06465,-2.04643 0.770734,-3.47898 2.413986,-4.89766 0.666679,-0.57557 1.597061,-1.61173 2.067513,-2.30258 0.470453,-0.69086 1.637883,-2.38442 2.594288,-3.76348 l 1.738915,-2.50738 -2.441892,-2.39839 c -3.648138,-3.58315 -5.723853,-7.15551 -6.883934,-11.84744 -0.798038,-3.22765 -0.839226,-8.06064 -0.09336,-10.95411 1.04806,-4.06576 2.132415,-6.34815 4.516358,-9.50621 6.144978,-8.14038 17.068236,-11.5622001 26.845317,-8.40957 3.918138,1.2634 7.125949,3.24507 10.03434,6.19884 9.938833,10.0939 9.254453,26.22794 -1.504364,35.46488 -0.765236,0.65699 -1.262799,1.25231 -1.211403,1.4494 0.225411,0.86444 4.804092,7.16531 6.170432,8.49134 1.931581,1.8746 2.300756,2.58366 2.375206,4.562 0.04296,1.14153 0.238626,1.99292 0.717453,3.1218 1.059769,2.49849 2.176444,6.04992 2.731687,8.68773 0.754948,3.58657 0.746599,8.27781 -0.02025,11.37225 -0.30392,1.22642 -0.521104,2.48071 -0.482628,2.78732 0.03848,0.306597 0.0025,1.286537 -0.07998,2.177637 -0.145114,1.56805 -0.201079,1.69005 -1.738875,3.790745 -0.873913,1.19382 -1.693036,2.24683 -1.820271,2.34003 -0.276438,0.20249 -1.224301,0.005 -1.642352,-0.34162 -0.16422,-0.13629 -0.491731,-0.26203 -0.727804,-0.27942 -0.543569,-0.0401 -1.540438,-0.96344 -1.540449,-1.42692 -7e-6,-0.19324 0.359938,-0.65356 0.799877,-1.022915 0.746033,-0.62635 0.781358,-0.71223 0.524689,-1.27556 -0.337876,-0.74156 -0.08774,-1.11177 1.192508,-1.7649 l 0.87451,-0.44614 -0.495469,-0.5274 -0.495469,-0.5274 -1.323389,1.10133 c -2.03782,1.6959 -3.084108,1.49383 -3.084108,-0.59563 0,-1.01072 0.111168,-1.302127 0.854899,-2.240997 0.470194,-0.59356 1.022083,-1.21692 1.22642,-1.38524 0.509156,-0.41941 0.472776,-0.75871 -0.301904,-2.81576 -0.369496,-0.98113 -0.894491,-2.86257 -1.166655,-4.18097 -0.272167,-1.3184 -0.546464,-2.39586 -0.609551,-2.39434 -0.06308,0.002 -0.35392,0.67883 -0.646298,1.50515 -0.292376,0.82632 -0.781517,2.2048 -1.086976,3.06329 -0.35534,0.99869 -0.595959,2.25124 -0.668039,3.47752 -0.09952,1.69307 -0.03125,2.19046 0.585261,4.264297 0.578939,1.94745 0.697917,2.72795 0.697917,4.57839 0,1.777585 -0.07285,2.291175 -0.358625,2.528355 -0.293632,0.24369 -0.332074,0.56707 -0.212124,1.78439 0.228223,2.3161 0.556244,2.2093 -6.785457,2.2093 -3.415183,0 -6.368146,-0.0609 -6.562139,-0.13535 -0.273683,-0.10502 -0.352716,-0.47441 -0.352716,-1.64853 0,-1.13935 -0.08263,-1.54489 -0.334478,-1.64153 -0.539072,-0.20687 -0.452953,-3.398985 0.134835,-4.997845 0.330486,-0.89897 0.459967,-1.7396 0.437718,-2.84182 -0.01855,-0.918607 0.109994,-1.966517 0.311138,-2.536617 0.1885,-0.53427 0.342728,-1.49512 0.342728,-2.13522 0,-1.56895 -0.38368,-1.9019 -2.191665,-1.9019 -2.274078,0 -2.726156,0.96865 -1.910255,4.09304 0.223759,0.85685 0.315941,1.84234 0.24608,2.630757 -0.06144,0.69337 -0.03388,1.3456 0.06125,1.44941 0.331915,0.36221 0.68594,1.80512 0.897056,3.656175 0.183791,1.61145 0.16156,1.94182 -0.163647,2.43195 -0.231936,0.34956 -0.388625,1.06763 -0.408375,1.87149 -0.02076,0.84528 -0.141785,1.37379 -0.343859,1.50174 -0.171496,0.10858 -3.199168,0.19896 -6.728159,0.20084 l -6.416347,0.003 z m 13.109151,-2.69773 c 0.103688,-2.22195 -0.277282,-3.753185 -1.107619,-4.451865 -0.668517,-0.56252 -0.693128,-0.5653 -4.992441,-0.5653 -2.87966,0 -4.515995,0.089 -4.906456,0.26692 -1.006197,0.45846 -1.51469,1.791375 -1.622095,4.252045 l -0.09505,2.17762 6.325411,-0.0593 6.325412,-0.0593 z m 16.196987,-0.55747 c -0.0093,-2.42616 -0.42342,-3.598855 -1.460299,-4.135045 -0.969391,-0.50129 -9.041424,-0.46875 -9.766874,0.0394 -0.905902,0.63452 -1.353061,1.988745 -1.3585,4.114255 -0.0027,1.05268 0.06355,1.98241 0.147217,2.06607 0.08366,0.0837 2.918363,0.12548 6.299336,0.0929 l 6.147222,-0.0592 z m -15.59067,-2.757745 c -0.225157,-1.4401 -1.46054,-3.72821 -2.328776,-4.31323 -0.724658,-0.48827 -0.945411,-0.51052 -5.065159,-0.51052 H 46.35794 l -0.749703,0.65825 c -0.82631,0.72551 -1.16936,1.64318 -1.400236,3.74571 -0.107292,0.977085 -0.07778,1.393655 0.09875,1.393655 0.138485,0 0.251788,-0.16194 0.251788,-0.35986 0,-0.617515 0.904979,-2.004515 1.560574,-2.391785 0.528828,-0.31239 1.338481,-0.37014 5.189065,-0.37014 4.293462,0 4.597478,0.0275 5.156226,0.46705 0.719043,0.56559 1.463778,1.963085 1.499121,2.813095 0.01766,0.42464 0.05983,0.48993 0.132886,0.20568 0.05886,-0.22902 0.04218,-0.83108 -0.03706,-1.337905 z m 16.17819,-1.06775 c -0.266505,-1.98029 -0.804705,-3.08709 -1.69936,-3.49472 -0.373072,-0.16999 -2.032019,-0.26128 -4.7479,-0.26128 -4.029476,0 -4.201433,0.0184 -4.950932,0.53032 -0.991087,0.67691 -1.939939,2.55646 -2.096245,4.15237 -0.08137,0.830785 -0.06221,1.010615 0.05939,0.557465 0.265299,-0.988655 0.629487,-1.582255 1.289049,-2.101065 0.553102,-0.43507 0.868704,-0.46321 5.185818,-0.46243 5.461314,8.9e-4 5.661691,0.0661 6.511116,2.11549 0.648542,1.564715 0.76341,1.299665 0.449059,-1.03615 z M 56.834021,92.135068 c -0.251492,-0.96017 -0.457258,-1.9648 -0.457258,-2.23251 0,-0.34077 -1.841741,-2.31765 -6.14119,-6.59182 -3.377655,-3.35779 -6.227945,-6.13535 -6.333979,-6.17237 -0.395618,-0.13809 -0.777853,1.69669 -0.780506,3.74656 -0.0025,1.92797 0.07062,2.29872 0.813606,4.12522 1.205905,2.96453 1.544189,4.52658 1.514244,6.99215 -0.03315,2.729347 -0.04576,2.62123 0.269126,2.30634 0.191381,-0.19138 1.621088,-0.26758 5.020445,-0.26758 h 4.752861 l 0.832922,0.765617 0.832919,0.76562 0.06703,-0.84574 c 0.03687,-0.465147 -0.138732,-1.631327 -0.390224,-2.591487 z m 10.945529,1.90599 c 2.574812,0 4.850479,0.0904 5.05704,0.20087 0.343013,0.18347 0.376459,-0.0533 0.385887,-2.73157 l 0.01032,-2.93244 1.021848,-2.67582 c 1.154083,-3.02209 1.605856,-4.89167 1.408338,-5.82816 -0.346065,-1.6408 -0.637767,-2.6637 -0.816158,-2.86197 -0.119371,-0.13267 -2.656957,2.24419 -6.545195,6.13064 -6.350203,6.34727 -6.350238,6.34731 -6.350238,7.30638 0,0.52749 -0.162053,1.60421 -0.360119,2.39271 -0.198065,0.7885 -0.29955,1.67497 -0.225521,1.969917 l 0.134598,0.53629 0.798861,-0.75343 0.798861,-0.753417 z m -33.06224,-1.64491 c 1.679755,-1.22404 3.257312,-1.92285 4.3408,-1.92285 h 0.980968 l 0.463549,-1.28217 c 0.568675,-1.57293 1.198477,-4.2476 1.798338,-7.63725 1.101695,-6.22534 1.423574,-7.7522 1.82753,-8.66903 0.236525,-0.53681 0.430045,-1.19181 0.430045,-1.45553 0,-0.7327 -0.62398,-1.47068 -1.243493,-1.47068 -0.748504,0 -3.001561,-0.93846 -4.208289,-1.75287 l -0.990761,-0.66866 -0.533905,0.93204 c -0.717484,1.2525 -1.3201,2.55928 -2.244704,4.86764 -1.975445,4.9319 -2.925711,9.71192 -2.763952,13.90322 0.0926,2.39946 0.681242,5.90911 0.991076,5.90911 0.06572,0 0.58448,-0.33884 1.152798,-0.75297 z m 51.013776,-1.26846 c 0.439701,-2.02814 0.488193,-6.52777 0.09717,-9.01634 -0.406317,-2.58592 -1.576967,-6.78939 -2.484018,-8.91942 -1.369672,-3.21638 -2.684835,-5.6985 -2.937279,-5.54355 -0.155242,0.0953 -0.683633,0.43977 -1.1742,0.76552 -0.943616,0.62658 -3.224426,1.54474 -3.837303,1.54474 -1.078413,0 -1.468024,1.33583 -0.831305,2.85023 0.349661,0.83164 0.987501,3.74074 1.550722,7.07262 0.952832,5.63673 1.57848,8.29214 2.351084,9.9786 0.24401,0.53263 0.409042,0.61321 1.255978,0.61321 1.072595,0 2.410357,0.59826 4.186703,1.87235 0.609461,0.43714 1.18797,0.71494 1.285573,0.61734 0.0976,-0.0976 0.339196,-0.92349 0.536875,-1.8353 z m -18.601447,-9.29508 c 3.539415,-3.52749 6.181619,-6.33164 6.145636,-6.52232 -0.03472,-0.18396 -0.97274,-1.21248 -2.084498,-2.2856 l -2.021375,-1.95112 h -9.885963 -9.885961 l -2.140737,2.11327 -2.140738,2.11326 6.353615,6.36018 6.353615,6.36018 h 1.548825 1.548827 z m -20.768456,-9.29638 c 0.129824,-0.49786 0.486308,-1.83655 0.792182,-2.97487 0.305875,-1.13833 0.524488,-2.25389 0.485807,-2.47904 -0.09191,-0.53495 -3.455334,6.73157 -3.653635,7.89349 l -0.152223,0.89195 1.14591,-1.21317 c 0.733809,-0.77688 1.230799,-1.5387 1.381959,-2.11836 z m 28.520949,3.05279 c -0.0062,-0.42838 -0.698348,-2.33133 -1.399097,-3.84649 -1.978841,-4.27866 -2.464583,-5.2199 -2.556219,-4.95329 -0.05423,0.15778 0.28029,1.7131 0.743375,3.45628 0.778997,2.93235 0.918183,3.25603 1.860924,4.32774 0.966075,1.09824 1.356442,1.39174 1.351017,1.01576 z m -24.928219,-5.96485 2.678228,-2.78732 h 6.607648 6.607649 l 2.846164,2.83985 c 2.007406,2.00295 2.844007,2.70936 2.838845,2.39709 -0.004,-0.24352 -0.787014,-3.35271 -1.739971,-6.90933 -1.308879,-4.88498 -1.811561,-6.45359 -2.055295,-6.41347 -0.177454,0.0292 -1.275907,0.32001 -2.441005,0.64623 -1.907129,0.53398 -2.496357,0.59379 -5.909111,0.59975 -3.462245,0.006 -3.98399,-0.0467 -6.020604,-0.60845 -3.028146,-0.83528 -2.836552,-0.86113 -3.144461,0.42429 -0.146888,0.61321 -0.536351,2.11836 -0.865478,3.34478 -2.343299,8.73183 -2.468146,9.25389 -2.212991,9.25389 0.07268,0 1.337357,-1.25429 2.810382,-2.78731 z m -11.021166,-3.54867 c 1.365663,-0.95727 3.319534,-1.07139 5.019376,-0.29318 0.670563,0.30699 1.495263,0.90797 1.841571,1.34198 l 0.627171,0.78601 0.418222,-0.78031 c 0.342733,-0.63947 0.392004,-1.04828 0.27297,-2.26487 -0.11907,-1.21696 -0.05526,-1.74581 0.354002,-2.93396 1.186882,-3.44568 1.090488,-4.16606 -0.703282,-5.25571 -0.719083,-0.43682 -1.394129,-0.74063 -1.5001,-0.67514 -0.105972,0.0655 -1.028634,1.35147 -2.050359,2.85773 -2.750875,4.05542 -3.436432,4.94508 -4.396549,5.70551 -1.211147,0.95924 -2.015653,2.20651 -2.185459,3.38822 l -0.144189,1.00343 0.747177,-1.1061 c 0.410947,-0.60836 1.175699,-1.40649 1.699449,-1.77361 z m 43.114921,1.53868 c -0.266617,-0.96561 -1.367714,-2.45444 -2.424344,-3.27802 -0.667591,-0.52035 -1.856531,-2.13008 -5.277561,-7.14537 -0.480292,-0.70412 -0.954975,-1.28022 -1.05485,-1.28022 -0.444282,0 -2.625603,1.60049 -2.760473,2.02543 -0.214639,0.67627 0.07939,2.38166 0.611918,3.5492 0.356068,0.78066 0.463366,1.4985 0.48329,3.23329 0.01853,1.6143 0.120207,2.36331 0.368289,2.71331 l 0.342682,0.48345 0.499268,-0.72863 c 0.274598,-0.40075 1.047429,-1.00598 1.717404,-1.34496 1.062189,-0.53742 1.41668,-0.6051 2.768994,-0.52869 1.322738,0.0747 1.675704,0.18764 2.399621,0.7675 0.46682,0.37392 1.199909,1.1488 1.629084,1.72194 0.846591,1.13058 1.045948,1.07672 0.696678,-0.18823 z m -19.867438,-8.143 c 7.546441,-0.91914 14.322845,-5.43237 18.031327,-12.00925 0.51096,-0.90617 0.880683,-1.69592 0.821605,-1.755 -0.05907,-0.0591 -0.538507,-0.0407 -1.065399,0.0409 -0.873286,0.13515 -1.103844,0.32582 -2.607626,2.15642 -0.949485,1.15584 -1.770481,1.96179 -1.93436,1.8989 -0.156596,-0.0601 -1.190632,-0.7647 -2.297857,-1.5658 l -2.013134,-1.45655 -4.414456,0.22622 c -2.427951,0.12442 -5.352196,0.28218 -6.498323,0.35059 l -2.083867,0.12437 -1.974272,1.77215 -1.974272,1.77215 -2.080063,-1.98157 -2.080063,-1.98157 -3.004197,-0.15732 c -1.652307,-0.0865 -4.107974,-0.3026 -5.457035,-0.48014 -2.96015,-0.38958 -3.679258,-0.4046 -3.679258,-0.0769 0,0.43468 1.596029,2.92457 2.927668,4.56731 5.081724,6.26897 13.266927,9.54368 21.383582,8.55509 z m 5.690918,-12.92357 c 3.515928,-0.24014 10.201797,-0.97749 12.289551,-1.35535 l 1.373911,-0.24867 0.57135,-1.81928 c 1.124743,-3.58138 1.425648,-6.42081 1.043498,-9.84675 -1.097712,-9.84093 -7.895339,-17.7663 -17.64362,-20.57074 -1.952139,-0.5616 -2.404672,-0.60544 -6.230266,-0.60358 -3.848816,0.002 -4.26717,0.0435 -6.243589,0.62093 -2.662244,0.77785 -6.137961,2.47054 -8.038862,3.91498 -5.81651,4.41979 -9.103508,10.5484 -9.708376,18.10131 -0.249322,3.11325 1.189582,9.91994 2.236026,10.57745 0.406168,0.2552 7.848702,1.11392 11.27449,1.30084 3.110523,0.16973 16.267748,0.12066 19.075887,-0.0711 z"
       id="path13" />
    <path
       style="fill:#6dd750;fill-opacity:1;stroke:#000000;stroke-width:0;stroke-linecap:round;stroke-linejoin:round;stroke-dasharray:none"
       d="m 50.967346,47.224762 6.460756,0.186593 -3.148744,2.880517 z"
       id="path1" />
    <path
       style="fill:#6dd750;fill-opacity:1;stroke:#000000;stroke-width:0;stroke-linecap:round;stroke-linejoin:round;stroke-dasharray:none"
       d="m 71.923035,46.82133 6.411278,-0.654528 -2.901355,3.127906 z"
       id="path1-0"
       sodipodi:nodetypes="cccc" />
    <path
       style="fill:#f2f2f2;fill-opacity:1;stroke:#000000;stroke-width:0;stroke-linecap:round;stroke-linejoin:round;stroke-dasharray:none"
       d="m 51.328869,46.661913 c -1.193024,-0.01874 -2.505001,-0.05791 -2.915504,-0.08705 -3.562941,-0.252894 -9.248068,-0.895443 -10.552186,-1.19264 -0.414985,-0.09457 -0.545143,-0.226004 -0.839799,-0.84803 -0.854084,-1.802989 -1.738061,-6.357682 -1.739177,-8.961112 -4.32e-4,-1.00807 0.197832,-2.683 0.492663,-4.162012 0.723106,-3.627445 2.182812,-6.965556 4.273483,-9.772768 1.440203,-1.933808 3.668459,-4.105778 5.484348,-5.345813 0.854175,-0.583299 1.690904,-1.062553 2.95064,-1.690038 1.825473,-0.909284 3.188149,-1.453788 4.810816,-1.922327 1.774968,-0.512515 2.22983,-0.549176 6.478014,-0.522107 3.564873,0.02272 3.621821,0.02688 4.92137,0.360204 2.516238,0.64539 4.784176,1.586151 6.927236,2.873481 1.72637,1.037025 3.068461,2.072794 4.494951,3.469013 1.715482,1.679077 2.998403,3.360783 4.184824,5.485636 2.408249,4.313124 3.44928,9.772876 2.769048,14.52244 -0.232064,1.620309 -0.523778,2.790564 -1.328118,5.327913 l -0.230495,0.727112 -0.968358,0.171903 c -3.039491,0.53957 -10.413996,1.33251 -13.726602,1.475947 -2.638524,0.11425 -10.895747,0.162366 -15.487154,0.09025 z"
       id="path2" />
    <path
       style="fill:#f2f2f2;fill-opacity:1;stroke:#000000;stroke-width:0;stroke-linecap:round;stroke-linejoin:round;stroke-dasharray:none"
       d="m 57.999541,59.584476 c -4.322346,-0.236556 -8.657124,-1.70499 -12.221791,-4.140208 -2.170803,-1.482994 -4.054435,-3.299474 -5.647227,-5.445906 -1.088079,-1.466285 -2.236294,-3.331591 -2.236294,-3.63292 0,-0.148765 0.192771,-0.213585 0.635185,-0.213585 0.511861,0 0.975155,0.04415 2.700151,0.257304 2.197455,0.271538 3.961863,0.418482 6.992304,0.582335 l 1.767721,0.09558 0.424737,0.403689 c 0.233606,0.222028 1.165396,1.108417 2.070646,1.969751 0.905249,0.861335 1.664582,1.566064 1.687405,1.566064 0.02282,0 0.92318,-0.791826 2.000792,-1.759613 l 1.959295,-1.759612 1.15805,-0.07076 c 3.849453,-0.235204 11.76996,-0.637177 11.832928,-0.600532 0.02979,0.01734 0.652435,0.462547 1.383643,0.989348 1.58166,1.139512 2.864541,2.011641 2.959075,2.011641 0.19896,0 0.941865,-0.757396 2.13913,-2.180857 0.902479,-1.072982 1.357451,-1.530389 1.675286,-1.68425 0.241973,-0.117138 0.730202,-0.218107 1.284141,-0.265569 0.336703,-0.02885 0.387766,-0.02316 0.414376,0.04619 0.03435,0.08951 -0.414864,1.033769 -0.871505,1.831942 -0.695384,1.215476 -1.843626,2.814592 -2.789783,3.885231 -4.846265,5.483868 -12.055663,8.512215 -19.318265,8.114741 z"
       id="path3" />
    <path
       style="fill:#f2f2f2;fill-opacity:1;stroke:#000000;stroke-width:0;stroke-linecap:round;stroke-linejoin:round;stroke-dasharray:none"
       d="m 36.56276,68.589572 c 0.09986,-0.677803 0.176464,-1.058618 0.265002,-1.317417 0.311813,-0.91143 0.949931,-1.783312 1.890848,-2.58353 1.147752,-0.976124 1.637275,-1.599412 4.190337,-5.335368 0.965422,-1.412726 1.975894,-2.851663 2.233914,-3.181149 0.140495,-0.179409 0.273273,-0.163469 0.80522,0.09667 1.082922,0.529574 1.841239,1.115267 2.082857,1.608714 0.345268,0.70513 0.232873,1.533925 -0.524521,3.867796 -0.418488,1.289548 -0.489506,1.681272 -0.450103,2.482695 0.08098,1.64712 0.08471,1.918778 0.02993,2.181891 -0.04669,0.224273 -0.537891,1.280737 -0.650253,1.398546 -0.01846,0.01935 -0.198658,-0.169572 -0.400447,-0.419832 -0.900638,-1.116972 -2.120247,-1.834818 -3.516244,-2.069614 -0.432423,-0.07273 -1.361947,-0.07167 -1.779543,0.002 -0.410918,0.07252 -0.954584,0.247161 -1.282821,0.412066 -0.814005,0.408952 -1.664675,1.242065 -2.444507,2.394056 -0.48971,0.723413 -0.487837,0.721487 -0.449672,0.462443 z"
       id="path4" />
    <path
       style="fill:#f2f2f2;fill-opacity:1;stroke:#000000;stroke-width:0;stroke-linecap:round;stroke-linejoin:round;stroke-dasharray:none"
       d="m 47.098204,72.076514 c 0.03789,-0.39736 0.507477,-2.261601 1.595106,-6.332474 0.503821,-1.885747 1.095223,-4.131851 1.314226,-4.991342 0.219004,-0.85949 0.427684,-1.619814 0.463735,-1.689609 0.03605,-0.06979 0.105933,-0.148513 0.155293,-0.17493 0.219604,-0.117529 0.80096,-0.01659 2.241691,0.389204 2.404738,0.677321 2.858275,0.728972 6.390783,0.727816 3.812353,-0.0012 3.941454,-0.01605 6.72696,-0.771559 1.679556,-0.455539 1.741949,-0.469023 1.830452,-0.395572 0.239683,0.198919 0.929473,2.483147 2.219293,7.349149 0.967209,3.648913 1.513291,5.88215 1.448174,5.922394 -0.06006,0.03712 -0.478688,-0.277582 -1.029345,-0.773791 -0.295049,-0.265876 -1.451756,-1.391386 -2.570461,-2.501133 l -2.034008,-2.017722 h -6.620641 -6.620641 l -1.849115,1.924233 c -2.111055,2.196813 -3.542129,3.626886 -3.629425,3.626886 -0.04532,0 -0.05312,-0.0709 -0.03208,-0.29155 z"
       id="path5" />
    <path
       style="fill:#f2f2f2;fill-opacity:1;stroke:#000000;stroke-width:0;stroke-linecap:round;stroke-linejoin:round;stroke-dasharray:none"
       d="m 81.873428,68.367993 c -0.11898,-0.121868 -0.365903,-0.410503 -0.548718,-0.64141 -0.816532,-1.031334 -1.670435,-1.824962 -2.269844,-2.10962 -0.458378,-0.217683 -0.902122,-0.288551 -2.022918,-0.32307 -0.878699,-0.02706 -0.987998,-0.02141 -1.347148,0.06968 -0.77056,0.195429 -1.858296,0.805286 -2.476553,1.388518 -0.170346,0.160696 -0.434182,0.473534 -0.586302,0.695195 l -0.276582,0.403019 -0.108128,-0.131833 c -0.451228,-0.55015 -0.537045,-1.000995 -0.593368,-3.117308 -0.04711,-1.77006 -0.114574,-2.201786 -0.495066,-3.167979 -0.446063,-1.132699 -0.647581,-2.027217 -0.647581,-2.874543 0,-0.531619 0.02769,-0.625238 0.261492,-0.884026 0.49704,-0.550164 2.193104,-1.726667 2.489189,-1.726667 0.16576,0 0.495292,0.426254 1.821185,2.355727 2.794982,4.067328 3.734199,5.327144 4.435296,5.949269 1.388407,1.232017 2.215837,2.365636 2.537918,3.47707 0.112529,0.388313 0.156495,0.859558 0.08019,0.859558 -0.02021,0 -0.134086,-0.09971 -0.253066,-0.221579 z"
       id="path6" />
    <path
       style="fill:#f2f2f2;fill-opacity:1;stroke:#000000;stroke-width:0;stroke-linecap:round;stroke-linejoin:round;stroke-dasharray:none"
       d="m 84.682229,92.786191 c -0.166767,-0.08436 -0.628583,-0.37519 -1.026257,-0.646295 -1.731015,-1.180072 -2.854241,-1.67019 -3.834836,-1.673324 -0.443326,-0.0014 -0.880903,-0.07742 -1.014095,-0.176134 -0.165761,-0.122857 -0.291141,-0.357107 -0.566872,-1.059102 -0.607345,-1.546266 -1.184195,-4.058962 -1.954425,-8.51327 -0.770731,-4.457202 -1.30665,-6.939239 -1.728309,-8.004435 -0.443682,-1.12083 -0.329829,-2.161961 0.280596,-2.565922 0.136613,-0.09041 0.281233,-0.132829 0.5586,-0.163861 0.621794,-0.06957 1.982321,-0.561679 3.076963,-1.112962 0.24618,-0.123981 0.79151,-0.448635 1.211845,-0.721454 0.884753,-0.574249 0.785972,-0.576508 1.172996,0.02683 0.589836,0.919501 1.898481,3.628741 2.621878,5.427977 0.931435,2.316669 2.099964,6.724772 2.390116,9.016356 0.29441,2.325223 0.250594,6.109279 -0.09394,8.113049 -0.09066,0.527248 -0.359801,1.596744 -0.488171,1.939843 -0.120578,0.322274 -0.17265,0.331957 -0.606087,0.112705 z"
       id="path7" />
    <path
       style="fill:#f2f2f2;fill-opacity:1;stroke:#000000;stroke-width:0;stroke-linecap:round;stroke-linejoin:round;stroke-dasharray:none"
       d="m 51.492073,81.650109 -6.344072,-6.345053 2.122487,-2.095758 2.122487,-2.095758 9.883743,-0.0025 9.883744,-0.0025 0.938605,0.905143 c 1.809309,1.744806 3.154388,3.151579 3.154388,3.29907 0,0.04914 -0.401214,0.533362 -0.882971,1.065657 -1.081403,1.194848 -2.403315,2.546928 -6.739794,6.89361 l -4.712029,4.723116 h -1.541259 -1.541258 z"
       id="path8" />
    <path
       style="fill:#f2f2f2;fill-opacity:1;stroke:#000000;stroke-width:0;stroke-linecap:round;stroke-linejoin:round;stroke-dasharray:none"
       d="m 33.485528,93.015674 c -0.225278,-0.343818 -0.634429,-2.659242 -0.817092,-4.624003 -0.315071,-3.388972 0.210156,-7.493635 1.490761,-11.650326 0.645762,-2.096065 1.835663,-5.095214 2.752992,-6.938924 0.402814,-0.809603 1.177277,-2.191859 1.228271,-2.192209 0.01997,-1.37e-4 0.313856,0.186093 0.653073,0.413846 0.339217,0.227752 0.829132,0.531479 1.0887,0.674948 1.026155,0.567177 2.496542,1.141418 3.18993,1.245786 0.594986,0.08956 0.701486,0.13528 0.986564,0.423567 0.308642,0.312113 0.459526,0.655109 0.459526,1.044612 0,0.275327 -0.181478,0.89995 -0.451576,1.55426 -0.321454,0.778723 -0.682192,2.422687 -1.368105,6.234773 -1.182701,6.573074 -1.549407,8.135057 -2.57635,10.973955 l -0.105465,0.291551 h -0.705422 c -0.589961,0 -0.777309,0.01823 -1.144616,0.11141 -1.046553,0.26548 -1.999474,0.76681 -3.63115,1.910341 -0.397675,0.278703 -0.780147,0.536301 -0.849938,0.57244 -0.11804,0.06112 -0.132,0.05791 -0.200103,-0.04603 z"
       id="path9" />
    <path
       style="fill:#f2f2f2;fill-opacity:1;stroke:#000000;stroke-width:0;stroke-linecap:round;stroke-linejoin:round;stroke-dasharray:none"
       d="m 56.320211,94.758255 -0.816341,-0.751134 -4.198325,0.02403 c -4.765207,0.02727 -5.342481,0.05755 -5.62468,0.295004 -0.07716,0.06493 -0.155153,0.103224 -0.173311,0.0851 -0.01816,-0.01812 -0.04601,-1.012588 -0.06189,-2.209925 -0.02524,-1.90314 -0.04119,-2.251402 -0.126809,-2.768634 -0.198972,-1.202033 -0.539705,-2.344629 -1.203095,-4.034398 -0.950405,-2.420843 -0.927044,-2.309925 -0.926762,-4.400346 1.79e-4,-1.322663 0.01524,-1.704922 0.08455,-2.14581 0.160748,-1.022499 0.364642,-1.633474 0.557517,-1.670619 0.09609,-0.0185 0.966613,0.804621 3.832125,3.62349 5.219244,5.134289 8.332134,8.367615 8.60441,8.93731 0.04961,0.103803 0.12358,0.405345 0.164375,0.670094 0.0408,0.26475 0.18094,0.923534 0.311433,1.463966 0.39565,1.638574 0.504893,2.463116 0.430086,3.246212 l -0.03695,0.38679 z"
       id="path10" />
    <path
       style="fill:#f2f2f2;fill-opacity:1;stroke:#000000;stroke-width:0;stroke-linecap:round;stroke-linejoin:round;stroke-dasharray:none"
       d="m 61.436503,95.168995 c -0.04372,-0.18694 -0.07923,-0.41067 -0.0789,-0.497173 9.58e-4,-0.252136 0.137411,-1.108659 0.258887,-1.625053 0.17901,-0.760976 0.30227,-1.56093 0.342969,-2.225867 0.07111,-1.161869 -0.104262,-0.950464 5.200774,-6.269177 4.334208,-4.345382 6.755378,-6.675628 7.46409,-7.183783 l 0.215801,-0.154733 0.09648,0.224705 c 0.233316,0.543395 0.687638,2.389915 0.729533,2.965079 0.07601,1.043554 -0.427455,2.846062 -1.796495,6.431785 l -0.6523,1.708471 -0.02387,2.629798 c -0.02252,2.480839 -0.04578,2.917487 -0.161541,3.033253 -0.02515,0.02515 -0.134934,0.02306 -0.271853,-0.0052 -0.52059,-0.107378 -1.927968,-0.150475 -5.703947,-0.174671 l -3.981544,-0.02551 -0.403374,0.390876 c -0.221855,0.214982 -0.572536,0.55428 -0.779291,0.75398 l -0.375919,0.3631 z"
       id="path11" />
    <path
       style="fill:#f2f2f2;fill-opacity:1;stroke:#000000;stroke-width:0;stroke-linecap:round;stroke-linejoin:round;stroke-dasharray:none"
       d="m 58.00015,101.03329 c -0.01266,-1.059705 -1.014843,-2.800585 -1.824027,-3.168485 -0.509092,-0.23146 -0.620481,-0.23688 -4.847254,-0.23593 -4.303895,9.8e-4 -4.541202,0.0135 -5.100939,0.26978 -0.621003,0.28431 -1.534638,1.54883 -1.665862,2.305645 -0.02567,0.14807 -0.06658,0.31644 -0.0909,0.37417 -0.05084,0.12067 -0.209252,0.14034 -0.251142,0.0312 -0.103611,-0.27 0.06004,-2.005395 0.272572,-2.890415 0.277614,-1.15603 0.550935,-1.60403 1.462063,-2.39648 l 0.43348,-0.37702 3.228392,8.4e-4 c 3.440721,8.9e-4 4.87416,0.0448 5.324063,0.16289 0.415237,0.10904 0.714009,0.2891 1.081554,0.65181 0.728772,0.7192 1.596119,2.33352 1.916793,3.56757 0.133357,0.5132 0.205604,1.646185 0.11493,1.802345 -0.04391,0.0756 -0.05183,0.0612 -0.05373,-0.0979 z"
       id="path12" />
    <path
       style="fill:#f2f2f2;fill-opacity:1;stroke:#000000;stroke-width:0;stroke-linecap:round;stroke-linejoin:round;stroke-dasharray:none"
       d="m 74.173862,100.48518 c -0.0631,-0.10904 -0.237025,-0.48165 -0.386499,-0.828005 -0.356663,-0.82645 -0.524579,-1.10568 -0.836181,-1.39046 -0.421045,-0.38482 -0.950958,-0.53229 -2.220364,-0.61794 -1.011583,-0.0683 -7.459033,-0.0314 -7.847722,0.0448 -0.410799,0.0806 -0.672306,0.22557 -1.044428,0.57905 -0.496714,0.47183 -0.74044,0.8865 -1.019398,1.734365 l -0.107434,0.32654 0.02373,-0.32654 c 0.136629,-1.879735 1.070635,-3.817375 2.200587,-4.565205 0.361741,-0.23942 0.642105,-0.34292 1.10121,-0.40656 0.542994,-0.0753 4.385486,-0.10631 5.978254,-0.0483 2.339929,0.0852 2.524998,0.12369 3.033144,0.63069 0.477328,0.47625 0.766707,1.08991 0.992978,2.10574 0.207359,0.93092 0.402525,2.863845 0.295819,2.929795 -0.02698,0.0167 -0.100507,-0.0588 -0.163701,-0.168 z"
       id="path14" />
    <path
       style="fill:#f2f2f2;fill-opacity:1;stroke:#000000;stroke-width:0;stroke-linecap:round;stroke-linejoin:round;stroke-dasharray:none"
       d="m 62.537181,104.65196 c -0.698524,-0.0178 -1.28176,-0.044 -1.296081,-0.0584 -0.150846,-0.15085 -0.190433,-2.71121 -0.05524,-3.57267 0.107289,-0.68365 0.27599,-1.257725 0.488356,-1.661865 0.181076,-0.34459 0.598091,-0.83239 0.799387,-0.93509 0.87042,-0.44405 8.020221,-0.51404 9.4696,-0.0927 0.641306,0.18644 1.139028,0.76647 1.399331,1.63075 0.201218,0.668095 0.247477,1.169675 0.271461,2.943345 l 0.02279,1.6855 -1.462825,0.0285 c -2.427047,0.0473 -8.282076,0.0671 -9.63678,0.0326 z"
       id="path15" />
    <path
       style="fill:#f2f2f2;fill-opacity:1;stroke:#000000;stroke-width:0;stroke-linecap:round;stroke-linejoin:round;stroke-dasharray:none"
       d="m 44.770208,104.22243 c 0.01573,-0.29161 0.05055,-0.97103 0.07738,-1.50981 0.105653,-2.1214 0.399157,-3.234505 1.033458,-3.919385 0.574613,-0.62042 0.90463,-0.66635 5.074636,-0.70618 2.804629,-0.0268 4.182529,0.0142 4.652016,0.13854 0.672172,0.17796 1.284216,0.92074 1.569307,1.904525 0.215622,0.74407 0.279658,1.49871 0.244803,2.8849 -0.01708,0.67945 -0.0433,1.31192 -0.05826,1.40549 l -0.0272,0.17011 -1.452689,0.0287 c -0.798978,0.0158 -3.100531,0.0395 -5.114561,0.0526 -2.01403,0.0131 -4.194134,0.0367 -4.844675,0.0523 l -1.182804,0.0284 z"
       id="path16" />
  </g>
</svg>
